<svg version="1" xmlns="http://www.w3.org/2000/svg" width="666.667" height="666.667" viewBox="0 0 500.000000 500.000000"><path d="M54.7 41.7c-.4.3-.7 93.4-.7 206.7v206.1h41.5V278h34.2c23.4 0 34.3.3 34.3 1.1 0 .5.8 2.9 1.9 5.2 2.7 6.2 3.4 8 3.8 10.1.2 1.1.8 2.5 1.4 3.3.6.7.8 1.3.4 1.3s-.3.6.2 1.2c.6.7 1.8 3.8 2.8 6.8 1 3 2 5.9 2.4 6.5.3.5.6 1.2.7 1.5.1.5 1.8 5.1 3.1 8 .3.8.7 1.7.8 2 .1.7 4.4 12.1 5.2 14 .3.8.7 1.7.7 2 .1.3.4.9.7 1.5.4.5 1.4 3.5 2.4 6.5s2.1 5.9 2.5 6.5c.4.5 1.3 2.8 2 5s2 5.8 3 8c2.7 6.2 3.3 7.9 3.7 9.9.2 1.1.8 2.5 1.4 3.3.6.7.8 1.3.4 1.3s-.3.6.2 1.2c.6.7 1.8 3.8 2.8 6.8 1 3 2 5.9 2.4 6.5.3.5.6 1.2.7 1.5.1.5 1.8 5.1 3.1 8 .3.8.7 1.7.8 2 .1.7 4.4 12.1 5.2 14 .3.8.7 1.7.7 2 .1.3.4.9.7 1.5.4.5 1.4 3.5 2.4 6.5s2.1 5.9 2.5 6.5c.4.5 1.3 2.8 2 5s1.9 5.5 2.7 7.2l1.5 3.3h18.9c11.1 0 18.9-.4 18.9-.9s.5-2.2 1.2-3.8c.6-1.5 1.2-3 1.3-3.3.1-.3.9-2.3 1.9-4.5 1-2.2 1.9-4.5 2-5 .3-1 2-5.4 3.3-8.5.3-.8.7-1.7.8-2 .2-.7 2.4-6.2 3.2-8 .3-.8.7-1.7.8-2 .2-.7 2.4-6.2 3.2-8 .3-.8.7-1.7.8-2 .1-.3.5-1.3.9-2.2.4-.9.9-2.3 1-3.1.1-.8.8-2.3 1.6-3.3.8-.9 1.4-2 1.4-2.3-.2-.7-.1-.9 2.8-8.6 1.2-3.3 2.3-6.2 2.3-6.5.1-.3.9-2.3 1.9-4.5 1.8-4.2 6-14.6 6.1-15.5 0-.3 1-2.6 2.2-5.1 1.1-2.5 2.6-6.3 3.3-8.5.7-2.1 1.6-4.4 2-4.9.5-.6.8-1.2.8-1.5.1-.5 1.8-5.4 2.9-8 .3-.8.7-1.7.8-2 .1-.3.7-1.8 1.3-3.3.7-1.6 1.2-3.1 1.2-3.3 0-.3.8-2.4 1.9-4.7 2.1-4.9 3.4-8 3.5-8.7.1-.6 2.4-6.3 4.6-11.5 2.2-5.1 3.3-7.9 3.5-8.5.1-.7 4.4-12.1 5.2-14 .3-.8.7-1.7.8-2 .1-.3.9-2.3 1.9-4.5 1-2.2 1.9-4.5 2-5 .3-1 2-5.4 3.3-8.5.3-.8.7-1.7.8-2 .2-.7 2.4-6.2 3.2-8 .3-.8.7-1.7.8-2 .2-.7 2.4-6.2 3.2-8 .3-.8.7-1.7.8-2 .2-.7 2.4-6.2 3.2-8 .3-.8.7-1.7.8-2 .1-.3.5-1.2.8-2 .9-2.2 5.1-13.4 5.2-14 .1-.3.9-2.3 1.9-4.5 1.8-4.2 6-14.6 6.1-15.5 0-.3 1-2.6 2.2-5.1 1.1-2.5 2.6-6.3 3.3-8.5.7-2.1 1.5-4.4 1.9-4.9.3-.6.6-1.2.7-1.5.1-.5 1.8-5.1 3.1-8 .3-.8.7-1.7.8-2 .1-.3.7-1.8 1.3-3.3.7-1.6 1.2-3.1 1.2-3.3 0-.3.8-2.4 1.9-4.7 2.1-4.9 3.4-8 3.5-8.7.1-.6 2.4-6.3 4.6-11.5 2.2-5.1 3.3-7.9 3.5-8.5.1-.7 4.4-12.1 5.2-14 .3-.8.7-1.7.8-2 .1-.3.7-1.6 1.3-3 .9-2.2 1.1-2.3 1.2-.5.1 1.1.2 81.5.2 178.8l.1 176.7h40.2l-.1-206.7-.1-206.8-29-.3-29-.2-1.4 3.2c-.8 1.8-1.4 3.5-1.4 3.8-.1.3-1 2.6-2.2 5.1-1.1 2.5-2.6 6.3-3.3 8.5-.7 2.1-1.5 4.3-1.9 4.9-.3.5-.6 1.2-.6 1.5-.1.3-.9 2.3-1.9 4.5-1 2.2-1.9 4.4-2 5-.3 1-2 5.4-3.3 8.5-.3.8-.7 1.7-.7 2-.1.3-.4.9-.7 1.5-.4.5-1.2 2.8-1.9 4.9-.7 2.2-2.1 5.9-3.2 8.3-1 2.3-1.9 4.5-1.8 4.8 0 .3-.7 1.9-1.5 3.5s-1.6 3.3-1.6 3.7c-.1.5-.8 2.4-1.6 4.3s-1.6 4-1.7 4.7c-.3 1.9-1.6 2.8-1.7 1.2-.3-6.9-9-27.6-13.7-33.2-.8-.9-1.1-1.7-.6-1.7.5 0 .4-.4-.2-.8-.5-.4-2.3-2.5-3.9-4.7-7.1-9.8-21.1-22.2-29.5-26.1-.8-.4-2.3-1.4-3.4-2.3-1-.9-2-1.5-2.2-1.3-.2.1-1.8-.5-3.4-1.3-1.6-.8-3.3-1.6-3.7-1.6-.5-.1-1.9-.6-3.3-1.2s-2.8-1.1-3.2-1.2c-.5-.2-1-.4-1.3-.5-.3-.1-.9-.4-1.5-.5-.5-.1-1.1-.3-1.2-.5-.2-.1-1.1-.3-2-.5-.9-.2-3.2-.8-5-1.4-1.8-.5-4.6-1.2-6.3-1.5-1.6-.2-3-.5-3-.6 0-.1-1.3-.4-3-.6-1.6-.2-4.6-.7-6.5-1.1-5.6-1-150.3-1.5-149.6-.5.3.5-.1.9-.9.9s-1.2-.4-.9-.9c.3-.4-.2-.8-1.1-.8-.9 0-1.4.4-1.1.8.3.5-.1.9-.9.9s-1.2-.4-.9-.9c.3-.4-.2-.8-1.1-.8-.9 0-1.4.4-1.1.8.3.5-.1.9-.9.9s-1.2-.4-.9-.9c.3-.4-.2-.8-1.1-.8-.9 0-1.4.4-1.1.8.3.5-.1.9-.9.9s-1.2-.4-.9-.9c.3-.4-.2-.8-1.1-.8-.9 0-1.4.4-1.1.8.3.5-.1.9-.9.9s-1.2-.4-.9-.9c.3-.4-.2-.8-1.1-.8-.9 0-1.4.4-1.1.8.3.5-.1.9-.9.9s-1.2-.4-.9-.9c.3-.4-.2-.8-1.1-.8-.9 0-1.4.4-1.1.8.3.5-.1.9-.9.9s-1.2-.4-.9-.9c.3-.4-.2-.8-1.1-.8-.9 0-1.4.4-1.1.8.3.5-.1.9-.9.9s-1.2-.4-.9-.9c.3-.4-.2-.8-1.1-.8-.9 0-1.4.4-1.1.8.3.5-.1.9-.9.9s-1.2-.4-.9-.9c.3-.4-.2-.8-1.1-.8-.9 0-1.4.4-1.1.8.3.5-.1.9-.9.9s-1.2-.4-.9-.9c.3-.4-.2-.8-1.1-.8-.9 0-1.4.4-1.1.8.3.5-.1.9-.9.9s-1.2-.4-.9-.9c.3-.4-.2-.8-1.1-.8-.9 0-1.4.4-1.1.8.3.5-.1.9-.9.9s-1.2-.4-.9-.9c.3-.4-.2-.8-1.1-.8-.9 0-1.4.4-1.1.8.3.5-.1.9-.9.9s-1.2-.4-.9-.9c.3-.4-.2-.8-1.1-.8-.9 0-1.4.4-1.1.8.3.5-.1.9-.9.9s-1.2-.4-.9-.9c.6-1-2-1.1-2.9-.1zM251 76.4c1.4.3 4.1.9 6 1.2 1.9.3 5 1 6.8 1.6 1.8.5 3.9 1.1 4.5 1.2 1.6.4 4.2 1.4 9.7 3.9 2.5 1.2 4.8 2 5.1 1.9.4 0 1.5.8 2.4 1.8 1 1.1 2.3 2 3 2 .7 0 2 .9 3 2s2.3 2 2.9 2c2.3 0 17.3 16.9 16.9 19-.1.3.4 1.2 1.1 2 1.2 1.4 2.1 3.3 2.5 5.5.2.5 1 1.8 1.8 2.7.9 1 1.3 1.8 1 1.8-.3 0 0 1.8.8 4s1.2 4 1 4c-.3 0 0 1.2.6 2.7 2.9 7.5 2.8 40.1-.1 47.8-.5 1.4-.8 2.5-.5 2.5.4 0-1.7 6.5-3.2 10-.3.8-.7 1.7-.8 2-.3 1.5-4.2 8.9-5.9 11.5-4.7 6.9-14.7 16.2-21.1 19.5-.5.3-2.8 1.7-5 3-2.2 1.4-4 2.3-4.1 2 0-.3-.7 0-1.5.6-1.7 1.4-16.2 6.1-20.9 6.8-1.9.3-4.6.8-6 1.2-1.4.3-14.4.8-29 1-14.6.3-27.9.6-29.7.7-1.8.2-3 .1-2.8-.2.3-.2.1-.9-.4-1.5s-1.4-2.9-2.1-5c-.7-2.2-2.2-6-3.3-8.5-1.2-2.5-2.2-5.5-2.4-6.5-.2-1.1-.8-2.5-1.4-3.3-.6-.7-.9-1.3-.5-1.3s0-1.3-.9-3c-.8-1.6-1.6-3.3-1.6-3.7-.2-1-.6-2.1-2-5.8-.7-1.7-1.3-3.2-1.4-3.5-.1-.3-.5-1.2-.8-2-1.6-3.9-3-7.6-3.3-8.8-.1-.8-.6-2.1-1-3-.4-.9-.8-1.9-.9-2.2-.1-.3-.5-1.4-1-2.5-.4-1.1-2.2-5.8-4-10.5-1.8-4.7-3.6-9.4-4-10.5-.5-1.1-.9-2.2-1-2.5 0-.3-1.1-3.2-2.3-6.5-2.8-7.4-3.1-8.3-3.3-9.3 0-.4-.4-1.2-.9-1.7-.4-.6-1.5-3.5-2.5-6.5s-2.3-6.1-2.9-6.9c-.6-.8-1-1.7-1-2 .2-.7.1-.9-2.8-8.6-1.2-3.3-2.3-6.2-2.3-6.5-.1-.3-.5-1.2-.8-2-1.1-2.5-2.5-6.5-2.6-7.3 0-.4-.8-2.1-1.6-3.7s-1.5-3.1-1.4-3.2c0-.3-1.6-4.9-2.8-7.8-.3-.8-.7-2-.8-2.6-.2-.5-1.2-2.9-2.3-5.2-1.1-2.2-1.7-4.4-1.3-4.7.8-.9 121.9 0 125.1.9zM98.5 107.2c1 2.9 2.5 7.1 3.5 9.3 2.5 5.8 3.3 7.8 3.6 9.3.1.8.6 2.1 1 3 .4.9.8 1.9.9 2.2.1.3.5 1.2.8 2 .8 1.9 5.1 13.3 5.2 14 .1.3.5 1.2.8 2 1.1 2.6 3 7.5 3.2 8 .1.7 4.4 12.1 5.2 14 .3.8.7 1.7.8 2 .1.3.5 1.4 1 2.5 2.5 6.2 7.5 19.5 7.5 20 0 .4.8 2.5 1.9 4.8 2.5 5.7 3.4 8 3.7 9.5.1.8.6 2.1 1 3 .4.9.8 1.9.9 2.2.1.3.5 1.2.8 2 .8 1.9 5.1 13.3 5.2 14 .1.3.5 1.2.8 2 5.2 12.2 7.7 11.1-23.6 10.8l-27.2-.3v-70.8c0-38.9.3-70.7.7-70.7.3 0 1.4 2.4 2.3 5.2zm260 85.7c.3.5.2 1.2-.3 1.5-.5.3-.9-.1-.9-.9 0-1.7.3-1.9 1.2-.6zM316 256.5c0 .2-.6.8-1.3 1.4-1 .8-1.4.7-1.4-.2 0-.8.6-1.4 1.4-1.4.7 0 1.3.1 1.3.2zm-12.5 9.4c-.2 1.1-.9 3-1.6 4.3-.7 1.3-1.1 2.4-1 2.6.1.1-.7 2.2-1.7 4.5-1.1 2.4-2.5 6.1-3.2 8.3-.7 2.1-1.5 4.3-1.9 4.9-.3.5-.6 1.2-.6 1.5-.1.3-.9 2.3-1.9 4.5-1 2.2-1.9 4.4-2 5-.2.5-.6 1.7-.9 2.5-.9 2.2-3 7.4-3.2 8-.1.3-.7 1.8-1.3 3.3-.7 1.6-1.2 3.1-1.2 3.3 0 .3-.8 2.4-1.9 4.7-2 4.7-3.4 7.9-3.5 8.7-.1.3-1.5 3.9-3.1 8s-3 7.7-3.1 8c-.1.5-1.9 5.3-3.1 8-.3.8-.7 1.7-.8 2-.1.3-.5 1.2-.8 2-.8 1.8-3 7.3-3.2 8-.1.3-.5 1.2-.8 2-1.1 2.5-2.5 6.5-2.6 7.3 0 .4-.8 2.1-1.6 3.7s-1.5 3.2-1.5 3.5c.1.3-.8 2.5-1.8 4.8-1.1 2.4-2.5 6.1-3.2 8.3-1.7 5.2-2.6 6.1-3.4 3-.3-1.4-1.1-3.8-1.8-5.3-.6-1.5-1.2-3-1.3-3.3-.1-.3-.5-1.2-.8-2-.8-1.9-5.1-13.3-5.2-14-.1-.3-.5-1.2-.8-2-1.1-2.5-2.5-6.5-2.6-7.3 0-.4-.8-2.1-1.6-3.7s-1.6-3.3-1.6-3.7c-.2-1-.6-2.1-2-5.8-.7-1.7-1.3-3.2-1.4-3.5-.1-.3-.5-1.2-.8-2-1.6-3.9-3-7.6-3.3-8.8-.1-.8-.6-2.1-1-3-.4-.9-.8-1.9-.8-2.2-.1-.5-7.3-19-9.1-23.5-.5-1.1-.9-2.2-1-2.5 0-.3-1.1-3.2-2.3-6.5-2.9-7.8-3.3-8.9-3.3-9.5-.1-.3-.4-1-.9-1.5-1-1.3-4.3-11.5-3.9-12 .2-.2 12.6-.5 27.4-.8 14.9-.3 28.6-.8 30.5-1.1 1.9-.3 4.9-.8 6.5-1 1.7-.2 3-.5 3-.6 0-.1 1.1-.3 2.5-.6 3.2-.5 11-2.4 13-3.2.8-.3 1.8-.6 2.3-.7.4-.2.9-.4 1.2-.5 1.4-.7 7-2.4 7.2-2.2.2.1 1.7-.7 3.5-1.7 1.8-1.1 3.4-2 3.5-2 .1-.1 0 .8-.2 1.8zM168 276.6c0 .8-1.9 1.3-2.4.6-.3-.5.1-.9.9-.9s1.5.2 1.5.3zm4 0c0 .8-1.9 1.3-2.4.6-.3-.5.1-.9.9-.9s1.5.2 1.5.3zm4 0c0 .8-1.9 1.3-2.4.6-.3-.5.1-.9.9-.9s1.5.2 1.5.3zm4 0c0 .8-1.9 1.3-2.4.6-.3-.5.1-.9.9-.9s1.5.2 1.5.3zm4 0c0 .8-1.9 1.3-2.4.6-.3-.5.1-.9.9-.9s1.5.2 1.5.3zm4 0c0 .8-1.9 1.3-2.4.6-.3-.5.1-.9.9-.9s1.5.2 1.5.3zm4 0c0 .8-1.9 1.3-2.4.6-.3-.5.1-.9.9-.9s1.5.2 1.5.3zm4 0c0 .8-1.9 1.3-2.4.6-.3-.5.1-.9.9-.9s1.5.2 1.5.3zm4 0c0 .8-1.9 1.3-2.4.6-.3-.5.1-.9.9-.9s1.5.2 1.5.3z"/></svg>